<svg id="Layer_1" data-name="Layer 1" xmlns="http://www.w3.org/2000/svg" viewBox="0 0 934.96 403.38"><defs><style>.cls-1{fill:#c1272d;}.cls-2{fill:#006837;}.cls-3{fill:#42210b;}.cls-4{fill:#3d9851;}.cls-5{fill:#8ab573;}.cls-6{fill:#333;}</style></defs><title>coop logo final</title><path class="cls-1" d="M419.66,410.59a100.11,100.11,0,0,1-14,31.54,106.47,106.47,0,0,1-22.92,24.67A105,105,0,0,1,352.94,483a104.32,104.32,0,0,1-74.9-2.34,107.35,107.35,0,0,1-33.32-22.34A104.73,104.73,0,0,1,222.08,425a103.91,103.91,0,0,1,0-81.32A106.44,106.44,0,0,1,278,288a104.53,104.53,0,0,1,75.63-2.11,104.09,104.09,0,0,1,30.08,16.94,109.2,109.2,0,0,1,23.07,25.76A101.81,101.81,0,0,1,420.53,361H398A85.68,85.68,0,0,0,386.37,337a82.6,82.6,0,0,0-18.1-18.69,84.13,84.13,0,0,0-23.21-12.26,82.3,82.3,0,0,0-58.69,2.18,83.68,83.68,0,0,0-44.09,44.16,82.23,82.23,0,0,0,0,64.42A83.68,83.68,0,0,0,286.36,461a81.93,81.93,0,0,0,58.11,2.32,86.8,86.8,0,0,0,22.78-11.68,81.78,81.78,0,0,0,29.93-41Z" transform="translate(-194.3 -185.84)"/><path class="cls-1" d="M547.26,280.07a99.78,99.78,0,0,1,40.15,8.18,103.87,103.87,0,0,1,55,55.19,103.75,103.75,0,0,1,0,80.74,104.27,104.27,0,0,1-55,55,103.39,103.39,0,0,1-80.59,0,104.28,104.28,0,0,1-55-55,103.75,103.75,0,0,1,0-80.74,103.88,103.88,0,0,1,55-55.19A100.48,100.48,0,0,1,547.26,280.07Zm.15,186a77.85,77.85,0,0,0,31.77-6.56,86.47,86.47,0,0,0,26.09-17.63,81.39,81.39,0,0,0,24-58,79.34,79.34,0,0,0-6.42-31.77,82.93,82.93,0,0,0-43.72-43.72,81.88,81.88,0,0,0-63.54,0,82.93,82.93,0,0,0-43.72,43.72,79.34,79.34,0,0,0-6.41,31.77,81.36,81.36,0,0,0,24,58,86.47,86.47,0,0,0,26.09,17.63A77.87,77.87,0,0,0,547.4,466.07Z" transform="translate(-194.3 -185.84)"/><path class="cls-1" d="M682.12,400.57a23.73,23.73,0,1,1,23.73,23.5A23.44,23.44,0,0,1,682.12,400.57Z" transform="translate(-194.3 -185.84)"/><path class="cls-1" d="M859.45,280.07a99.78,99.78,0,0,1,40.15,8.18,103.87,103.87,0,0,1,55,55.19,103.74,103.74,0,0,1,0,80.74,104.27,104.27,0,0,1-55,55,103.39,103.39,0,0,1-80.59,0,104.28,104.28,0,0,1-55-55,103.75,103.75,0,0,1,0-80.74,103.88,103.88,0,0,1,55-55.19A100.49,100.49,0,0,1,859.45,280.07Zm.15,186a77.85,77.85,0,0,0,31.77-6.56,86.47,86.47,0,0,0,26.09-17.63,81.39,81.39,0,0,0,24-58,79.34,79.34,0,0,0-6.42-31.77,82.93,82.93,0,0,0-43.72-43.72,81.88,81.88,0,0,0-63.54,0,82.93,82.93,0,0,0-43.72,43.72,79.33,79.33,0,0,0-6.41,31.77,81.35,81.35,0,0,0,24,58,86.47,86.47,0,0,0,26.09,17.63A77.87,77.87,0,0,0,859.6,466.07Z" transform="translate(-194.3 -185.84)"/><path class="cls-1" d="M1094.22,284.3a56.77,56.77,0,0,1,18.25,12.41,59.8,59.8,0,0,1,12.26,18.4,55.57,55.57,0,0,1,4.53,22.19,56.26,56.26,0,0,1-4.53,22.48,59.79,59.79,0,0,1-12.26,18.4,56.83,56.83,0,0,1-40.73,16.94h-63.66v93.44h-21.9V279.78h85.56A56.28,56.28,0,0,1,1094.22,284.3Zm-8.61,86.14a34.2,34.2,0,0,0,11.39-7.74,37.66,37.66,0,0,0,7.59-11.39,35,35,0,0,0,2.77-14,35.51,35.51,0,0,0-35.62-35.62h-63.66v71.54h63.66A35.25,35.25,0,0,0,1085.6,370.44Z" transform="translate(-194.3 -185.84)"/><path class="cls-2" d="M304.71,265.67a31.37,31.37,0,0,0-9.44-9.29,58,58,0,0,0-26.59-9h0c0-14.59-37.55,9.76-46.68,18-19.89,17.94-24.19,58.91-8,101.59a105.06,105.06,0,0,1,24.73-39.89c10.1-10.11,20.23-16.34,24.49-18.33,20.52-9.6,42.06-7.89,47-20.68C312.94,281,309.34,272.69,304.71,265.67Z" transform="translate(-194.3 -185.84)"/><path class="cls-3" d="M293.94,219A79.68,79.68,0,0,1,309,232.61a72.48,72.48,0,0,1,5.85,7.9,68,68,0,0,1,4.49,8.49c.62,1.46,1.29,2.91,1.86,4.4s1.17,3,1.67,4.48a23.58,23.58,0,0,1,1,9.25,31.29,31.29,0,0,1-2.22,9.15,26.85,26.85,0,0,1-5.44,8.43L315,284.5a78,78,0,0,1-2-8.85c-.52-2.84-1-5.59-1.43-8.31a64.63,64.63,0,0,1-.8-8.16c0-1.37-.12-2.75-.29-4.13a31.21,31.21,0,0,0-.69-4.12,56.87,56.87,0,0,0-2.58-8.12,59.26,59.26,0,0,0-3.65-8A83.49,83.49,0,0,0,293,219.62Z" transform="translate(-194.3 -185.84)"/><path class="cls-4" d="M317.46,277.06a24.21,24.21,0,0,0-1-10.18,44.75,44.75,0,0,0-11.27-18.49c-12.64-12.33-31.28-12.46-36.52-12.52-27.33-.35-56,22.5-74.39,57.52,33-6.56,57.71-4,74.88,0,11.59,2.71,30.86,8.67,40.39-.34A27.5,27.5,0,0,0,317.46,277.06Z" transform="translate(-194.3 -185.84)"/><path class="cls-5" d="M311.47,264.65c-4.82-.26-9.57-.61-14.34-.8s-9.51-.26-14.27-.37a119.34,119.34,0,0,0-14.32.14,85.37,85.37,0,0,0-14.09,2.6c-2.3.66-4.6,1.29-6.86,2s-4.54,1.42-6.8,2.16q-6.74,2.33-13.32,5c-8.81,3.57-17.36,7.72-25.9,12.17l-.16-.25a108.52,108.52,0,0,1,24.83-14.87,117.63,117.63,0,0,1,27.88-7.89l14.32-2c4.77-.62,9.55-1.42,14.39-1.67a69.69,69.69,0,0,1,7.26,0c1.21,0,2.42.14,3.62.21s2.41.23,3.61.36a83.91,83.91,0,0,1,14.2,2.82Z" transform="translate(-194.3 -185.84)"/><path class="cls-6" d="M487.13,224.51c3,2.4,8.1,6.3,13,6.3a7.16,7.16,0,0,0,4.65-1.35,2.6,2.6,0,0,0-.15-3.9c-4-3.37-15.82-8-15.82-15.75,0-10.27,11.62-19,18.3-21.9,3.6-1.5,7.2-2.1,9.67.15a13.49,13.49,0,0,1,3.75,6.3c.75,3-1,5.92-2.17,7.5a86.29,86.29,0,0,0-5.17,8.32c-.37.68-.83,1.05-1.65.23-1.42-1.42-2.33-3.75-.75-7.27s7.2-9.82,5.4-11.7c-2.55-2.62-21,8.85-21.38,18.22-.22,4.88,9.38,8.85,13.58,11.85,2.85,2,2.47,5.48-.83,9.3-4.5,5.17-17.55,6.6-28.12-6.15-.83-1-.52-1.5.15-1.73A8.63,8.63,0,0,1,487.13,224.51Z" transform="translate(-194.3 -185.84)"/><path class="cls-6" d="M521.33,201.86c-.75-1.05-.3-1.58.83-1.5a42.77,42.77,0,0,0,6.22-.3,96.38,96.38,0,0,1,5.7-9.3c.67-1,1.42-.9,1.8,0,.83,2.1.83,4.57-1,8.47,2.92-.08,4,1.27,4.65,2.25s.23,1.42-.9,1.42a22.38,22.38,0,0,0-5.85.3c-2.92,5-7.2,12.3-10,18.6-2.47,5.47-1.65,10.12,1.5,10.27,3.38.15,7.65-5.17,10.42-10.8.45-.9,1.27-1,1.57,0,.38,1.2,0,2.55-.75,4.27-1,2.17-5.92,8.77-11.92,8.55-5-.15-8.92-5.7-5.33-14.32,1.58-3.75,4.72-10,8-16A6.19,6.19,0,0,1,521.33,201.86Z" transform="translate(-194.3 -185.84)"/><path class="cls-6" d="M541.65,232c6.22.3,11.7-5.7,14.92-10.65.38-.6,1-.6,1.27.08s.08,2.7-1.27,4.65a19,19,0,0,1-14.7,8.1c-9.53.15-12.83-9.22-8-18.9s12.52-13.57,16.27-11.4a14,14,0,0,1,4.42,3.9c1.35,1.8.75,6.37-2.4,10.2-3.68,4.5-8.7,6.45-14,2.17C535.88,227.06,537.68,231.78,541.65,232Zm6.22-17.25c2.4-3.15,4-7,3-7.87-1.58-1.27-7.8,3.23-11.32,10.35-.23.45-.45.9-.6,1.27C542.63,220.83,545.7,217.61,547.88,214.76Z" transform="translate(-194.3 -185.84)"/><path class="cls-6" d="M580.58,203.58c.83-.82,1.27-.67,1.42.3.22,1.57-.67,3.52-3.08,6.52-3.75,4.73-10.57,11.92-17.77,23.32-.37.6-.75,1.13-1.5.75-2.92-1.42-4-2.92-3.75-6.9a115.33,115.33,0,0,1,4.88-23.77c.3-.82.9-1.12,1.5-.6,2.48,2.1,2.85,4.88,1.8,9.45-1.35,5.77-2.85,10-3.9,18.15C565.5,222,575.48,208.83,580.58,203.58Z" transform="translate(-194.3 -185.84)"/><path class="cls-6" d="M587.48,232c6.22.3,11.7-5.7,14.92-10.65.38-.6,1-.6,1.27.08s.08,2.7-1.27,4.65a19,19,0,0,1-14.7,8.1c-9.53.15-12.83-9.22-8-18.9s12.52-13.57,16.27-11.4a14,14,0,0,1,4.42,3.9c1.35,1.8.75,6.37-2.4,10.2-3.68,4.5-8.7,6.45-14,2.17C581.7,227.06,583.5,231.78,587.48,232Zm6.22-17.25c2.4-3.15,4-7,3-7.87-1.58-1.27-7.8,3.23-11.32,10.35-.23.45-.45.9-.6,1.27C588.45,220.83,591.53,217.61,593.7,214.76Z" transform="translate(-194.3 -185.84)"/><path class="cls-6" d="M624.15,203.58c2.47.38,4.8,4,2.92,7.95-1.58,3.3-5.25,8.85-7,12.75-2,4.35-1.5,7.87,1.2,7.72,3.07-.15,6.75-5.1,9.6-10.35.38-.67.9-.67,1.27-.07.53.82.38,2.55-.67,4.72-2,4.2-6.75,8-11.1,8-6.37,0-7.87-4.65-5.7-11.17,2.48-7.35,9.08-15.3,7.73-15.9-.75-.3-5.1,1.8-9.9,7-4.42,4.8-7.72,12-10.95,19-.3.67-.75,1-1.42.3-1.5-1.5-2-4-.75-7.72,1.5-4.72,7.27-15.15,12-22.12.53-.82,1.13-.75,1.58,0,1.13,1.88,1,4.42.22,7.12C616.58,207.33,621.68,203.21,624.15,203.58Z" transform="translate(-194.3 -185.84)"/><path class="cls-6" d="M641.55,207.78c.38-2.93,1.13-4.35,2.7-5.77s3.38-1.8,4-1.12.38,1.57-.6,3.3c-.3.45-.53.9-.83,1.42-.52,6.9.9,12.75.67,17.92-.15,2.92-.67,6.07-3.37,7.88,5-1.87,8.17-6.37,10-10.42.38-.83,1.13-.6,1.43,0s.22,2.63-1.05,4.95a15.8,15.8,0,0,1-13.27,8.25c-4.35.15-8.55-1-11.1-5.62-1.8-3.37-1.57-8.32,1-10.42.9-.75,1.5-.45,1.57.75.08.6.08,1.2.15,1.8A148.57,148.57,0,0,0,641.55,207.78Zm-8,16.95c1.13,4.35,3.3,7.42,5.78,6.67,3.45-1.05,2.32-12.82,2-18.82A131.61,131.61,0,0,1,633.6,224.73Z" transform="translate(-194.3 -185.84)"/><path class="cls-6" d="M679.87,191.66c-.37-.83-.22-1.27.75-1.35,6.22-.67,11.85-3.82,16.95-4,3.83-.15,7.13,1,8.92,6.22,1.58,4.5.3,8.85-2.25,12.82-3.75,5.85-11.85,11.47-21.67,13.35a6.87,6.87,0,0,1-4.65-.75c-2.1,4.12-4.35,9.07-7,15.3-.3.75-.67.75-1.2.23-1-1.12-1.8-3.37-.67-7.42,2-6.82,9-20.92,15.52-31.2A5.56,5.56,0,0,1,679.87,191.66Zm23.4,1.5c-1.58-4.12-9.08-.23-14,1.2,0,2-.75,4.65-2.85,8.25-1.95,3.45-4,6.9-6.3,11.1C696.9,210.56,705.3,198.41,703.27,193.16Z" transform="translate(-194.3 -185.84)"/><path class="cls-6" d="M743.92,226.46c-2.25,4.5-7,7.88-11.25,7.8-5.7-.08-7-4.87-4.95-11,.75-2.1,1.88-4.8,3.15-7.5a10.27,10.27,0,0,1-7,1.88c-1.5,6.38-6.22,14.1-11.85,15.9a8,8,0,0,1-9.45-3.15c-3.3-4.42-2.17-11,1.2-16.87,3-5.1,7.42-9.37,11.92-9.75,2.33-.22,3.67.3,5.17,2.48,1.65,2.4,3.9,2.85,3.53,8.25a7.37,7.37,0,0,1-.15,1.27c4.65,0,9.07-4.87,13-10.72.67-1.05,1.27-1.12,1.88-.45,1.13,1.2,1.65,4.42-.08,8.17-1.5,3.3-4.72,8.47-6.3,12.15-1.87,4.35-1.72,7.35.75,7.2,3.3-.15,7.5-5.1,9.75-10.35.3-.67.9-.67,1.27,0A5.87,5.87,0,0,1,743.92,226.46Zm-29.77-17.25a26.83,26.83,0,0,0-5.85,7.12c-3.15,5.63-4.27,12.6-2.32,14.25s6.67-1,10.27-7.72a48.55,48.55,0,0,0,2.85-6.37C716.4,215.06,714.22,212.13,714.15,209.21Zm5.85,0c-.23-2.4-1.87-2-2.25.23a5.75,5.75,0,0,0,1.8,5A13.51,13.51,0,0,0,720,209.21ZM740.55,197c1.2-1.27,3.45-.37,4.35,1.73a4.66,4.66,0,0,1-.52,4.87c-.9,1.13-3,.9-4.12-1.12A4.66,4.66,0,0,1,740.55,197Z" transform="translate(-194.3 -185.84)"/><path class="cls-6" d="M765.45,203.58c2.47.38,4.8,4,2.92,7.95-1.58,3.3-5.25,8.85-7,12.75-2,4.35-1.5,7.87,1.2,7.72,3.07-.15,6.75-5.1,9.6-10.35.38-.67.9-.67,1.27-.07.53.82.38,2.55-.67,4.72-2,4.2-6.75,8-11.1,8-6.37,0-7.87-4.65-5.7-11.17,2.48-7.35,9.08-15.3,7.73-15.9-.75-.3-5.1,1.8-9.9,7-4.42,4.8-7.72,12-10.95,19-.3.67-.75,1-1.42.3-1.5-1.5-2-4-.75-7.72,1.5-4.72,7.27-15.15,12-22.12.53-.82,1.13-.75,1.58,0,1.13,1.88,1,4.42.23,7.12C757.87,207.33,763,203.21,765.45,203.58Z" transform="translate(-194.3 -185.84)"/><path class="cls-6" d="M775.5,201.86c-.75-1.05-.3-1.58.83-1.5a42.77,42.77,0,0,0,6.22-.3,96.38,96.38,0,0,1,5.7-9.3c.67-1,1.42-.9,1.8,0,.83,2.1.83,4.57-1,8.47,2.92-.08,4,1.27,4.65,2.25s.23,1.42-.9,1.42a22.38,22.38,0,0,0-5.85.3c-2.92,5-7.2,12.3-10,18.6-2.47,5.47-1.65,10.12,1.5,10.27,3.38.15,7.65-5.17,10.42-10.8.45-.9,1.27-1,1.57,0,.38,1.2,0,2.55-.75,4.27-1,2.17-5.92,8.77-11.92,8.55-5-.15-8.92-5.7-5.33-14.32,1.58-3.75,4.72-10,8-16A6.19,6.19,0,0,1,775.5,201.86Z" transform="translate(-194.3 -185.84)"/><path class="cls-6" d="M812.09,222.41a118.69,118.69,0,0,0-5.7,10.8.74.74,0,0,1-1.35.15c-.9-1.2-1.2-3.45.38-7.65a40.7,40.7,0,0,1,2-4.27,5.31,5.31,0,0,1-2.47-2.55c-.37-1-.22-1.27.9-1.12s2.17.3,3.38.38c5.85-10.2,16.27-25,24.22-31.57,1.2-1,2-1,2.7.08a10.11,10.11,0,0,1,1.72,3.07,7.27,7.27,0,0,1,0,5.48A156.35,156.35,0,0,0,832.42,217a4.66,4.66,0,0,1,3.38,3.82c.15.67-.15.9-.83.67a17.54,17.54,0,0,0-3.22-.45c-.53,3.9-1,8-1.12,12,0,.75-.45,1-1.12.67-1.5-.67-2.7-2.55-2.78-6.82,0-1.5.08-3.45.3-5.7C821.69,221.58,815.62,222.48,812.09,222.41Zm15.52-5.77c1.13-7.8,3.22-17.25,5.55-23.1a201.94,201.94,0,0,0-18.22,24.37C819.52,217.53,824.09,216.71,827.62,216.63Z" transform="translate(-194.3 -185.84)"/><path class="cls-6" d="M856.79,205.83c.9-.6,1.5-.75,2-.15,1.42,1.57,3.22,4.87,1,7.35-3.37,3.82-7,8.55-8.25,12.45s-.3,6.82,1.88,6.9c2.92.15,6.52-4.5,8.92-9.9.3-.6.75-.67,1-.08a6.54,6.54,0,0,1-.37,4.65c-1.73,4.35-6.08,7.5-10,7.35-5.4-.23-7.58-5.17-5.7-10.8,1.65-4.95,6-10.27,9-13.72a16.31,16.31,0,0,1-8.77,2.85c-2.85,5.25-10,15.9-11.47,22.72-.15.67-.6,1-1.28.38-2.17-2.25-2.17-5.7-.15-9.52,1.73-3.3,6.75-10.35,9.53-14.32-4.28-2.77,2.25-11.62,5-11.7,2.33-.07,1.72,4.27-.15,9A17.74,17.74,0,0,0,856.79,205.83Z" transform="translate(-194.3 -185.84)"/><path class="cls-6" d="M871.72,232c6.22.3,11.7-5.7,14.92-10.65.38-.6,1-.6,1.27.08s.08,2.7-1.27,4.65a19,19,0,0,1-14.7,8.1c-9.53.15-12.83-9.22-8-18.9s12.52-13.57,16.27-11.4a14,14,0,0,1,4.42,3.9c1.35,1.8.75,6.37-2.4,10.2-3.68,4.5-8.7,6.45-14,2.17C865.94,227.06,867.74,231.78,871.72,232Zm6.22-17.25c2.4-3.15,4-7,3-7.87-1.58-1.27-7.8,3.23-11.32,10.35-.23.45-.45.9-.6,1.27C872.69,220.83,875.77,217.61,877.94,214.76Z" transform="translate(-194.3 -185.84)"/><path class="cls-6" d="M912.44,204q1-1.46,1.8-.45c1.13,1.35,1.72,4.57-.08,8.32-1.65,3.38-5.4,9-7.2,13-1.87,4.2-2,7.42.6,7.27,3.08-.15,7.2-5.25,9.82-10.42.38-.67.9-.75,1.2-.08a6.74,6.74,0,0,1-.67,4.65c-2,4.13-6.67,8.25-10.8,8s-6.15-2.62-6.15-6.15c-2.4,3.07-5.77,5.85-9.37,5.85-7,0-8.4-9.52-2.17-18.6,6.08-8.85,12-12.22,15.75-12.22,3.22,0,4.72,2.48,4.57,5.4C910.72,206.81,911.62,205.23,912.44,204Zm-6,3.07c-2.4-.23-7.87,4.65-12,11.32-4,6.45-5,13-2,13.12,3.08.07,7-4.73,10.8-11.32C907.94,212,908.62,207.33,906.44,207.11Z" transform="translate(-194.3 -185.84)"/><path class="cls-6" d="M435.14,554.12c-1.2-.54-1.68-2.28-.78-4,.84-1.56,2.82-2.34,3.84-1.92s1.68,2.34.66,4.2S436.28,554.66,435.14,554.12Z" transform="translate(-194.3 -185.84)"/><path class="cls-6" d="M465,569.36c-3.36,8-7.62,17.7-12.6,19.62-1.14.42-2.28.42-3.42-1.26s-2.4-3.9-1.2-7.44c1.8-5.4,6.9-9,12.84-11.34.6-1.38,1.2-2.88,1.86-4.32-1.86,1.92-4.14,3.48-6.54,3.3-4.32-.36-4.44-4.74-3.06-8.7A64,64,0,0,1,461,544a.83.83,0,0,1,1.5,0c1.44,1.92,1.08,4.44-1.14,8a54.77,54.77,0,0,0-4.62,8.76c-1.2,2.94-1.08,5,.3,5.16,2.34.18,5.34-3.66,8.4-8.88,2.58-4.44,5.16-9.84,7.26-12.9.54-.78,1-.9,1.5-.42.84,1.08,1.32,3.66-.24,6.72-1.8,3.48-5.46,10.68-8,16.5a32,32,0,0,0,10.62-9.24c.3-.42.84-.48,1,.12a5.38,5.38,0,0,1-1.08,3.48C474.14,565,469.94,567.32,465,569.36Zm-14.82,16.32c.78,1.14,5.7-5.4,9.42-14.22C451.76,576,449.06,584.18,450.14,585.68Z" transform="translate(-194.3 -185.84)"/><path class="cls-6" d="M514.28,568.16c-3.9,0-5.4-2.4-4.92-5.88-2.1,2.76-5.16,5.94-8.58,5.64-4.26-.36-4.38-4.74-3.06-8.7a30.31,30.31,0,0,1,2.28-5.16,10.53,10.53,0,0,1-5.4,1.08c-1.38,5-5,11-9.3,12.42a6.63,6.63,0,0,1-7.62-2.64c-2.64-3.54-1.74-8.7.9-13.5,2.28-4.14,6-7.5,9.6-7.74,1.8-.12,2.82.42,4.08,2,1.44,1.8,3.12,2.16,2.82,6.6a10.17,10.17,0,0,1-.12,1.2c3.42-.06,6.72-2.88,8.76-6.18.6-1,1.56-2.28,2.28-3.3a.85.85,0,0,1,1.5-.06c1.32,2,1,4.5-1.14,8a58.3,58.3,0,0,0-4.68,8.76c-1.2,2.94-1,5,.3,5.16,2.34.18,5.7-3.9,8.88-9.12,3.72-6.06,5.46-10.2,7.32-12.78.54-.78,1-.9,1.5-.36.9,1.08,1.38,3.66-.06,6.66-1.32,2.7-4.26,7.08-5.64,10.2-1.56,3.48-1.32,5.94.84,5.82,2.46-.12,5.58-4.08,7.86-8.28.3-.54.78-.6,1.08-.06a4.75,4.75,0,0,1-.54,3.72C521.48,565.16,517.82,568.16,514.28,568.16Zm-27.42-20a21.86,21.86,0,0,0-4.68,5.7c-2.52,4.5-3.36,10-1.8,11.34s5.28-.78,8.28-6.24a32.15,32.15,0,0,0,2.1-4.86C488.72,552.92,486.86,550.58,486.86,548.12Zm2.94.12a4.66,4.66,0,0,0,1.38,4.08,11.48,11.48,0,0,0,.42-4.26C491.36,546.14,490,546.56,489.8,548.24Z" transform="translate(-194.3 -185.84)"/><path class="cls-6" d="M537.8,545.42c.72-.48,1.2-.6,1.62-.12,1.14,1.26,2.58,3.9.84,5.88-2.7,3.06-5.64,6.84-6.6,10s-.24,5.46,1.5,5.52c2.34.12,5.22-3.6,7.14-7.92.24-.48.6-.54.84-.06a5.23,5.23,0,0,1-.3,3.72c-1.38,3.48-4.86,6-8,5.88-4.32-.18-6.06-4.14-4.56-8.64,1.32-4,4.8-8.22,7.2-11a13,13,0,0,1-7,2.28c-2.28,4.2-8,12.72-9.18,18.18-.12.54-.48.84-1,.3-1.74-1.8-1.74-4.56-.12-7.62,1.38-2.64,5.4-8.28,7.62-11.46-3.42-2.22,1.8-9.3,4-9.36,1.86-.06,1.38,3.42-.12,7.2A14.2,14.2,0,0,0,537.8,545.42Z" transform="translate(-194.3 -185.84)"/><path class="cls-6" d="M560.24,566.24c2.88.24,7.08-4.08,9.42-8.7.42-.78,1.08-.84,1.32,0a5.52,5.52,0,0,1-.6,3.72c-.84,1.8-5.22,6.78-10,6.66-4.14-.12-6.36-3-5-9.48,2.22-10.44,9.06-21.3,15.18-27.66.9-1,1.74-1.08,2.58-.3,1.74,1.56,2.1,3.78,1.38,6.6-1.86,7.38-8.58,14.58-13.92,18.06C558.2,561,557.54,566,560.24,566.24Zm12.24-30.42c-.78-.48-5.22,6.18-9.36,13.86a32.17,32.17,0,0,0-1.44,2.88C569.9,545.9,573.26,536.3,572.48,535.82Z" transform="translate(-194.3 -185.84)"/><path class="cls-6" d="M587.42,555c-1.26,5.1-5,11.16-9.48,12.66-2.16.72-5.16.48-7.56-2.64-2.64-3.48-1.74-8.7,1-13.5,2.28-4.08,5.94-7.56,9.54-7.8a4.09,4.09,0,0,1,4.08,2c1.38,1.86,3.18,2.28,2.82,6.6-.06.48-.06.9-.12,1.38.36,0,.72-.12,1.2-.12s.42.3.18.6A2.45,2.45,0,0,1,587.42,555Zm-5.1-1.5a7.46,7.46,0,0,1-2.76-5.28,21,21,0,0,0-4.62,5.64c-2.52,4.56-3.42,10.08-1.86,11.4s5.34-.72,8.28-6.24a31.77,31.77,0,0,0,2.1-4.8A4.55,4.55,0,0,1,582.32,553.52Zm2-5.34c-.3-1.92-1.5-1.56-1.8.18a4.93,4.93,0,0,0,1.32,4.26A11.48,11.48,0,0,0,584.36,548.18Z" transform="translate(-194.3 -185.84)"/><path class="cls-6" d="M606.56,547.28c1.26,2.52-1.14,5.7-2.34,8.94-.24.72-.48.9-1.26.48-1.44-.72-2.28-2.52-1.44-5.22.66-2.16,2.46-4.74,1.62-5.4-1-.84-5.52,3-8.22,8.46-3.3,6.78-2,11.76,1.5,11.82,5,.06,9.36-4.74,11.82-8.52.3-.48.84-.54,1.08.06a5.43,5.43,0,0,1-1.08,3.6A15,15,0,0,1,596.66,568c-7.62.12-10.2-7.32-6.3-15.06,3.84-7.56,9.9-10.8,12.9-9A7.93,7.93,0,0,1,606.56,547.28Z" transform="translate(-194.3 -185.84)"/><path class="cls-6" d="M628.7,544q.81-1.17,1.44-.36c.9,1.08,1.38,3.66-.06,6.66-1.32,2.7-4.32,7.2-5.76,10.38-1.5,3.36-1.56,5.94.48,5.82,2.46-.12,5.76-4.2,7.86-8.34.3-.54.72-.6,1-.06a5.39,5.39,0,0,1-.54,3.72c-1.56,3.3-5.34,6.6-8.64,6.42s-4.92-2.1-4.92-4.92c-1.92,2.46-4.62,4.68-7.5,4.68-5.58,0-6.72-7.62-1.74-14.88,4.86-7.08,9.6-9.78,12.6-9.78,2.58,0,3.78,2,3.66,4.32C627.32,546.2,628,544.94,628.7,544Zm-4.8,2.46c-1.92-.18-6.3,3.72-9.6,9.06-3.18,5.16-4,10.44-1.62,10.5s5.58-3.78,8.64-9.06C625.1,550.34,625.64,546.62,623.9,546.44Z" transform="translate(-194.3 -185.84)"/><path class="cls-6" d="M637,566.24c2.88.24,7.08-4.08,9.42-8.7.42-.78,1.08-.84,1.32,0a5.52,5.52,0,0,1-.6,3.72c-.84,1.8-5.22,6.78-10,6.66-4.14-.12-6.36-3-5-9.48,2.22-10.44,9.06-21.3,15.18-27.66.9-1,1.74-1.08,2.58-.3,1.74,1.56,2.1,3.78,1.38,6.6-1.86,7.38-8.58,14.58-13.92,18.06C635,561,634.34,566,637,566.24Zm12.24-30.42c-.78-.48-5.22,6.18-9.36,13.86a32.17,32.17,0,0,0-1.44,2.88C646.7,545.9,650.06,536.3,649.28,535.82Z" transform="translate(-194.3 -185.84)"/><path class="cls-6" d="M689.11,543.32c.78-.12,1.14.78.9,2-.48,2.4-1.5,5.1-5.22,11.4-4.08,6.84-8.34,11.46-12.36,11.34-2.58-.06-4-2.4-3.84-5-1.92,2.46-4.44,4.86-7.32,4.68-3.72-.24-4.38-4.14-2.82-8.58a62.76,62.76,0,0,1,8.34-15.3c.48-.66,1.08-.6,1.44-.06,1.44,2,1.14,4.56-1.08,8.1a60.66,60.66,0,0,0-4.92,9.12c-1.2,2.94-1.14,5,.24,5,2.4-.06,4.62-4.08,7.86-9.3,3.84-6.12,5.58-10.26,7.56-12.84.6-.78,1-.9,1.5-.36.84,1.08,1.32,3.72-.12,6.72-1.32,2.7-4.32,7.26-5.82,10.44-1.62,3.42-1.44,5.46.3,5.52,2.1.06,5.7-3.9,8.94-9.54C683.71,547.52,687.85,543.56,689.11,543.32Z" transform="translate(-194.3 -185.84)"/><path class="cls-6" d="M702.67,568.1c-5,0-6.3-3.66-4.5-8.88,2-5.82,7.2-12.06,6.24-12.6s-7.38,3.6-10.86,9.3a78.66,78.66,0,0,0-5.82,11.4c-.24.54-.66.66-1,.24-1-1.08-1.5-2.76-.24-6.36,2.1-6,14.58-27.12,19.44-33.18.54-.72,1.14-.66,1.44.06.78,1.74.6,4.74-1.68,8.52-1.44,2.4-4.62,7.26-7.2,11.28,2.46-2.4,5.58-4.38,7.2-4.2,2,.24,3.9,3.24,2.34,6.3-1.32,2.64-4.2,7-5.58,10.14-1.5,3.48-1.2,6.3,1,6.18,2.46-.12,5.76-4.44,7.62-8.28a.57.57,0,0,1,1.08-.06c.3.66.3,1.92-.6,3.72C709.87,565.1,706.21,568.1,702.67,568.1Z" transform="translate(-194.3 -185.84)"/><path class="cls-6" d="M736.51,566.24c2.82.18,7-4.08,9.3-8.64.36-.78,1-.84,1.26,0a5.72,5.72,0,0,1-.6,3.66c-.72,1.74-5.16,6.78-9.9,6.6-4-.18-6.3-2.94-4.92-9.36.18-.84.36-1.56.6-2.34a10.7,10.7,0,0,1-1.38.06,11.89,11.89,0,0,1-2.1-.18c-1.5,4.86-5,10.26-9.12,11.52A6.45,6.45,0,0,1,712,565c-2.58-3.54-1.68-8.82,1-13.5,2.34-4.08,5.88-7.5,9.48-7.8,1.8-.18,2.88.36,4.08,2,1.44,1.92,3.12,2.28,2.82,6.6a17.05,17.05,0,0,1-.3,2.28,14.86,14.86,0,0,0,1.68.12c.6,0,1.26,0,1.86-.06A65.41,65.41,0,0,1,746.77,531c.84-.9,1.8-1.08,2.58-.3,1.62,1.62,2,3.78,1.32,6.54a32.48,32.48,0,0,1-5.64,10.5c-2.46,3.06-5,5.64-8.1,7.08C734.47,560.9,733.81,566.06,736.51,566.24Zm-15.3-18a20.06,20.06,0,0,0-4.68,5.58c-2.52,4.5-3.36,10.08-1.8,11.4s5.34-.78,8.28-6.18a36.43,36.43,0,0,0,2-4.62C722.71,552.86,721.21,550.46,721.21,548.24Zm4.8-.12c-.3-1.92-1.5-1.56-1.8.18a5.23,5.23,0,0,0,1.32,4.32A11.79,11.79,0,0,0,726,548.12Zm18.3-2.46c2.64-3.84,5-9.12,4.26-9.66s-5.22,6.06-9.3,13.74c-.48.9-.9,1.8-1.26,2.58A26.65,26.65,0,0,0,744.31,545.66Z" transform="translate(-194.3 -185.84)"/><path class="cls-6" d="M752.89,566.36c5,.24,9.36-4.56,11.94-8.52.3-.48.78-.48,1,.06a4.87,4.87,0,0,1-1,3.72,15.2,15.2,0,0,1-11.76,6.48c-7.62.12-10.26-7.38-6.36-15.12s10-10.86,13-9.12a11.17,11.17,0,0,1,3.54,3.12c1.08,1.44.6,5.1-1.92,8.16-2.94,3.6-7,5.16-11.16,1.74C748.27,562.4,749.71,566.18,752.89,566.36Zm5-13.8c1.92-2.52,3.24-5.64,2.4-6.3-1.26-1-6.24,2.58-9.06,8.28-.18.36-.36.72-.48,1C753.67,557.42,756.13,554.84,757.87,552.56Z" transform="translate(-194.3 -185.84)"/><path class="cls-6" d="M786.55,563.06c0,.66-.06,1.32-.12,2a20.65,20.65,0,0,0,6.24-7.62c.36-.72,1-.78,1.26.06a6,6,0,0,1-.6,3.6,14.41,14.41,0,0,1-7.2,6.24c-1,6.06-3.6,12.72-6.48,16.32-2,2.52-3.54,2.76-5.34,1.2-1.5-1.26-3.3-3.6-2.64-8.7,1.68-13.38,15.48-36.36,22.14-46.32.48-.72,1.26-.66,1.5.06.72,2,.54,4.62-2,9-2.46,4.08-6.6,10.86-9.84,17.16C785.71,556.82,786.61,559.1,786.55,563.06ZM775,582.56c1.32,1.74,5.82-6.54,7.8-14.76a4.26,4.26,0,0,1-3.66-2.4C775.75,573.38,773.59,580.82,775,582.56Zm8.7-20.82c.06-2.22-.54-4.08-1-3.9-.6.24-1.14,3.42-1.2,4.8-.06,1.92.48,3.18,1.62,3.42A27.38,27.38,0,0,0,783.67,561.74Z" transform="translate(-194.3 -185.84)"/><path class="cls-6" d="M831.61,555c-1.26,5.1-5,11.16-9.36,12.6a6.5,6.5,0,0,1-7.56-2.52c-2.16-2.88-2-6.9-.36-10.92a8.62,8.62,0,0,1-3.72.78c-1.26,5.16-5,11.22-9.42,12.66a6.44,6.44,0,0,1-7.5-2.52c-2.7-3.54-1.74-8.82.9-13.5,2.34-4.08,6-7.5,9.6-7.8,1.8-.18,2.82.3,4,2,1.38,1.92,3.18,2.28,2.88,6.6,0,.3-.06.6-.06.9,2.4-.36,4.68-2.34,6.48-4.56,2.22-2.76,4.92-4.74,7.68-4.92a4,4,0,0,1,4,2c1.44,1.92,3.18,2.28,2.88,6.6a10.78,10.78,0,0,1-.18,1.38,6.94,6.94,0,0,0,1.14-.06c.54-.12.54.3.24.6A2.43,2.43,0,0,1,831.61,555Zm-33.42-1.14c-2.58,4.5-3.48,10.08-1.8,11.4s5.22-.78,8.16-6.18a26.06,26.06,0,0,0,2.16-5c-1.92-1-3.9-3.3-3.9-5.82A19.92,19.92,0,0,0,798.19,553.82Zm7.56-5.46a4.26,4.26,0,0,0,1.44,4.14,13.3,13.3,0,0,0,.36-4.38C807.31,546.2,806,546.56,805.75,548.36Zm20.88,5.1a6.89,6.89,0,0,1-2.82-5.22,19.93,19.93,0,0,0-4.62,5.58c-2.58,4.5-3.3,10.08-1.8,11.4s5.22-.78,8.16-6.18a28,28,0,0,0,2.16-4.92A2.51,2.51,0,0,1,826.63,553.46Zm1.92-5.34c-.24-1.92-1.44-1.56-1.74.18a5,5,0,0,0,1.38,4.26A13.74,13.74,0,0,0,828.55,548.12Z" transform="translate(-194.3 -185.84)"/><path class="cls-6" d="M850.21,566.48c2.46-.12,5.7-4.14,7.8-8.28.3-.54.72-.54,1-.06a5.25,5.25,0,0,1-.48,3.72c-1.62,3.3-5.34,6.48-8.64,6.3s-4.86-2-4.86-4.8c-1.92,2.4-4.62,4.62-7.44,4.62-5.58,0-6.66-7.62-1.74-14.82,4.74-7,9.54-9.66,12.54-9.66,2.46,0,3.66,1.86,3.6,4.08,3.24-6.18,7.8-14.34,10-17.4.6-.84,1.14-.78,1.44,0,.84,2,.66,4.56-1.86,9.06-2.88,5.16-8.64,15.06-11.64,21.42C848.23,564.14,848.17,566.6,850.21,566.48Zm-10.44-10.92c-3.24,5.16-3.9,10.38-1.56,10.44s5.64-3.48,8.46-8.94c3.48-6.66,4.38-10.44,2.64-10.5S843.07,550.28,839.77,555.56Z" transform="translate(-194.3 -185.84)"/><path class="cls-6" d="M879.73,547a6.5,6.5,0,0,1,2.16-4.62c1.32-1.2,2.7-1.44,3.24-.9s.3,1.26-.48,2.64c-.24.36-.42.72-.66,1.14-.42,5.52.72,10.2.54,14.34-.12,2.34-.54,4.86-2.7,6.3,4-1.5,6.54-5.1,8-8.34.3-.66.9-.48,1.14,0s.18,2.1-.84,4a12.64,12.64,0,0,1-10.62,6.6c-3.48.12-6.84-.78-8.88-4.5-1.44-2.7-1.26-6.66.78-8.34.72-.6,1.2-.36,1.26.6.06.48.06,1,.12,1.44A118.66,118.66,0,0,0,879.73,547Zm-6.36,13.56c.9,3.48,2.64,5.94,4.62,5.34,2.76-.84,1.86-10.26,1.62-15.06A105.48,105.48,0,0,1,873.37,560.54Z" transform="translate(-194.3 -185.84)"/><path class="cls-6" d="M892.21,542.24c-.6-.84-.24-1.26.66-1.2a34.29,34.29,0,0,0,5-.24,77,77,0,0,1,4.56-7.44c.54-.78,1.14-.72,1.44,0,.66,1.68.66,3.66-.78,6.78a3.76,3.76,0,0,1,3.72,1.8c.42.72.18,1.14-.72,1.14a17.9,17.9,0,0,0-4.68.24c-2.34,4-5.76,9.84-8,14.88-2,4.38-1.32,8.1,1.2,8.22,2.7.12,6.12-4.14,8.34-8.64.36-.72,1-.84,1.26,0a5,5,0,0,1-.6,3.42c-.78,1.74-4.74,7-9.54,6.84-4-.12-7.14-4.56-4.26-11.46,1.26-3,3.78-8,6.36-12.78A5,5,0,0,1,892.21,542.24Z" transform="translate(-194.3 -185.84)"/><path class="cls-6" d="M932.41,568.22c-4.62-.24-6.48-4.26-5-9.18,1.2-4,5-8.46,7.5-11.4a13.75,13.75,0,0,1-7.26,2.34c-1.68,2.7-4.14,4.74-7.44,4.86-1.2,5.1-4.92,11.28-9.36,12.72a6.53,6.53,0,0,1-7.62-2.58c-2.58-3.54-1.68-8.76.9-13.5,2.28-4.14,6.06-7.5,9.66-7.8,1.8-.18,2.76.42,4,2,1.44,1.86,3.18,2.22,2.88,6.6,0,.3-.12.6-.12,1a6.84,6.84,0,0,0,4.68-3.72c-4.44-1.92,1.44-9.84,3.84-9.9,2.1-.06,1,4.32-.18,7.5a15.66,15.66,0,0,0,6.48-2.88c.78-.54,1.32-.72,1.8-.12,1.08,1.26,2.58,4.08.78,6.12-2.82,3.18-5.7,7.26-6.78,10.44s-.42,5.64,1.5,5.76c2.4.18,5.46-3.84,7.38-8.22.24-.54.66-.66.9-.12a5.23,5.23,0,0,1-.18,3.9C939.19,565.64,935.71,568.4,932.41,568.22Zm-20-20a22.17,22.17,0,0,0-4.62,5.64c-2.58,4.56-3.42,10-1.86,11.4s5.28-.78,8.28-6.24a25.18,25.18,0,0,0,2.1-4.92A7.44,7.44,0,0,1,912.43,548.18Zm4.74-.06c-.24-2-1.56-1.5-1.8.24a4.46,4.46,0,0,0,1.5,4A13.68,13.68,0,0,0,917.17,548.12Z" transform="translate(-194.3 -185.84)"/><path class="cls-6" d="M947.65,566.36c5,.24,9.36-4.56,11.94-8.52.3-.48.78-.48,1,.06a4.87,4.87,0,0,1-1,3.72,15.2,15.2,0,0,1-11.76,6.48c-7.62.12-10.26-7.38-6.36-15.12s10-10.86,13-9.12A11.17,11.17,0,0,1,958,547c1.08,1.44.6,5.1-1.92,8.16-2.94,3.6-7,5.16-11.16,1.74C943,562.4,944.47,566.18,947.65,566.36Zm5-13.8c1.92-2.52,3.24-5.64,2.4-6.3-1.26-1-6.24,2.58-9.06,8.28-.18.36-.36.72-.48,1C948.43,557.42,950.89,554.84,952.63,552.56Z" transform="translate(-194.3 -185.84)"/><path class="cls-6" d="M975.91,554.12c-1.2-.54-1.68-2.28-.78-4,.84-1.56,2.82-2.34,3.84-1.92s1.68,2.34.66,4.2S977,554.66,975.91,554.12Z" transform="translate(-194.3 -185.84)"/></svg>